<?xml version="1.0" standalone="no"?>
<!DOCTYPE svg PUBLIC "-//W3C//DTD SVG 20010904//EN"
 "http://www.w3.org/TR/2001/REC-SVG-20010904/DTD/svg10.dtd">
<svg version="1.0" xmlns="http://www.w3.org/2000/svg"
 width="500.000000pt" height="500.000000pt" viewBox="0 0 500.000000 500.000000"
 preserveAspectRatio="xMidYMid meet">
<metadata>
Created by potrace 1.14, written by Peter Selinger 2001-2017
</metadata>
<g transform="translate(0.000000,500.000000) scale(0.100000,-0.100000)"
fill="#000000" stroke="none">
<path d="M1085 4907 c-90 -54 -164 -107 -202 -146 -166 -172 -233 -475 -158
-725 34 -117 90 -218 183 -333 19 -24 30 -43 24 -43 -14 0 -239 117 -277 144
-51 36 -84 68 -128 125 -23 31 -45 58 -49 59 -5 2 -8 8 -8 14 0 12 -26 39 -32
32 -3 -2 1 -37 9 -77 66 -351 233 -616 525 -833 128 -95 313 -186 408 -199 8
-2 31 -6 50 -10 43 -9 280 -14 334 -7 37 4 27 9 -125 62 -218 75 -369 147
-484 232 -107 79 -315 265 -315 282 0 6 123 -28 235 -65 159 -53 294 -132 403
-233 l34 -31 -21 54 c-43 114 -138 233 -303 379 -26 23 -41 42 -33 42 8 0 92
-39 186 -87 163 -82 259 -145 304 -201 51 -64 62 -75 73 -68 8 4 6 21 -5 58
-40 135 -130 238 -318 363 -174 115 -263 189 -334 280 -158 200 -202 411 -133
632 20 61 63 137 127 219 77 97 82 112 30 81z"/>
<path d="M1115 4738 c-68 -77 -120 -177 -131 -256 -5 -37 -5 -132 1 -162 11
-67 18 -90 46 -145 16 -33 46 -78 66 -100 38 -42 113 -105 125 -105 4 0 -10
28 -31 63 -110 181 -142 369 -97 573 2 12 15 53 29 93 14 39 24 71 23 71 -2 0
-16 -14 -31 -32z"/>
<path d="M2597 4414 c-1 -1 -47 -5 -102 -8 -55 -3 -113 -8 -130 -10 -98 -15
-122 -19 -144 -27 -13 -5 -26 -8 -28 -5 -9 9 -269 -86 -358 -130 -112 -57
-263 -157 -335 -223 -61 -56 -61 -64 0 -26 87 55 358 175 430 190 3 1 37 11
75 23 77 23 178 47 240 56 22 4 47 8 55 11 68 18 420 25 540 11 153 -19 214
-30 345 -65 89 -24 94 -26 115 -33 8 -3 60 -22 115 -42 55 -20 141 -57 190
-81 l90 -44 -42 38 c-62 56 -176 130 -289 187 -102 51 -314 127 -389 138 -22
3 -51 8 -65 11 -14 3 -36 7 -50 10 -38 7 -258 23 -263 19z"/>
<path d="M3940 4286 c0 -2 9 -32 20 -67 54 -167 60 -305 22 -434 -62 -204
-248 -379 -492 -463 -36 -12 -148 -40 -249 -63 -215 -47 -269 -66 -351 -121
-72 -48 -120 -109 -185 -236 -61 -119 -105 -153 -163 -125 -51 25 -70 80 -70
201 1 99 2 102 22 96 34 -11 67 -13 89 -5 21 8 21 8 -3 16 -59 18 -86 50 -114
139 -16 51 -41 105 -62 131 -38 51 -42 60 -16 46 22 -12 174 -12 166 0 -3 5
-12 9 -20 9 -21 0 -85 34 -177 93 -106 68 -150 82 -188 63 -25 -12 -35 -13
-62 -2 -45 18 -148 20 -188 3 -35 -14 -80 -56 -49 -45 19 6 141 -27 189 -52
86 -45 125 -104 124 -191 -1 -81 -29 -162 -75 -214 -22 -25 -37 -45 -34 -45 3
0 27 13 53 29 26 17 49 28 51 26 10 -9 -42 -146 -81 -217 -132 -238 -159 -290
-182 -352 -69 -184 -49 -348 64 -513 20 -29 39 -53 43 -53 3 0 9 13 13 30 4
17 10 30 15 30 8 0 94 -129 132 -200 95 -176 130 -374 88 -490 -10 -28 -17
-50 -15 -50 2 0 23 36 47 80 24 44 46 80 49 80 8 0 113 -225 133 -286 26 -80
28 -93 31 -202 2 -112 -15 -210 -52 -294 -26 -57 -8 -54 28 5 56 89 86 161
105 252 8 36 5 149 -5 201 -20 104 -80 248 -172 416 -27 50 -31 63 -24 103 l6
47 118 -194 c112 -185 183 -313 214 -388 24 -59 39 -99 39 -107 0 -4 4 -18 9
-31 10 -26 20 -74 25 -112 1 -14 3 -25 4 -25 9 0 14 -263 6 -301 -2 -12 -7
-44 -11 -72 -3 -29 -15 -81 -25 -117 -10 -36 -16 -65 -14 -65 3 0 1 -8 -5 -17
-5 -10 -16 -43 -25 -73 l-16 -55 20 25 c11 14 24 30 28 35 63 80 183 337 198
425 3 14 9 49 15 78 11 54 14 195 6 242 -3 14 -8 43 -12 65 -4 22 -11 48 -16
57 -5 10 -7 18 -4 18 3 0 -17 43 -44 95 l-49 96 39 -36 c115 -103 304 -188
494 -220 86 -14 264 -24 270 -15 2 4 -26 19 -63 35 -157 67 -415 210 -495 274
-6 6 -25 21 -40 33 l-28 23 119 0 c86 0 123 4 135 14 10 7 17 11 17 7 0 -3 23
5 51 20 28 14 49 28 46 30 -3 3 -40 7 -83 9 -74 3 -117 9 -156 21 -9 3 -25 6
-35 8 -73 15 -393 159 -393 178 0 4 10 4 23 0 12 -5 45 -7 72 -7 45 2 66 4
157 20 41 8 220 73 232 85 7 7 -9 10 -49 11 -33 0 -73 3 -90 5 -44 6 -119 17
-125 19 -3 1 -21 5 -40 9 -58 13 -179 56 -239 85 -51 25 -151 81 -151 84 0 1
37 2 82 2 46 1 97 3 113 7 100 19 428 179 408 198 -4 5 -51 18 -103 30 -52 12
-117 29 -145 37 -59 18 -177 74 -171 81 3 2 33 -5 68 -16 35 -11 90 -26 123
-33 59 -12 214 -15 264 -5 14 3 40 8 57 11 198 32 509 181 654 313 51 46 140
138 140 144 0 4 -38 -13 -85 -37 -242 -125 -462 -177 -747 -177 -75 0 -145 3
-155 6 -10 3 -38 8 -63 11 -101 13 -294 80 -287 99 6 15 20 12 107 -19 190
-68 426 -73 635 -13 22 6 42 12 45 13 27 6 129 44 185 70 146 67 299 178 406
294 65 70 195 258 186 267 -3 3 -43 -17 -89 -45 -114 -70 -181 -92 -323 -106
-127 -13 -185 -15 -185 -8 0 4 16 16 35 25 153 76 292 207 368 348 135 249
130 552 -13 750 -61 85 -100 126 -100 106z m-517 -1187 c-4 -4 -60 -26 -123
-50 -136 -50 -230 -104 -305 -175 -56 -52 -68 -71 -37 -59 49 19 193 57 237
62 130 17 494 -4 468 -27 -11 -10 -173 -73 -253 -99 -62 -19 -193 -52 -270
-66 -63 -12 -400 -15 -400 -4 0 5 7 23 15 39 9 17 15 31 15 32 1 33 52 130 90
174 93 107 223 158 440 170 52 3 96 7 98 8 1 2 9 3 17 3 9 0 12 -4 8 -8z
m-738 -528 c19 -32 183 -117 328 -172 57 -21 84 -36 78 -42 -6 -6 -71 -11
-146 -13 -163 -2 -283 21 -410 81 -56 26 -84 34 -89 26 -8 -13 87 -153 140
-206 28 -28 80 -67 117 -89 37 -21 67 -42 67 -47 0 -8 -35 -19 -117 -37 -23
-5 -79 -8 -124 -7 -101 3 -98 0 -169 167 -59 140 -59 140 19 209 62 54 56 51
146 77 43 13 91 32 105 42 28 21 46 25 55 11z"/>
<path d="M3861 4103 c-3 -256 -116 -468 -329 -620 -49 -36 -42 -40 28 -19 88
27 146 61 210 126 134 134 179 310 125 492 -24 83 -33 88 -34 21z"/>
<path d="M467 3433 c16 -41 82 -174 104 -213 63 -111 258 -328 364 -406 22
-16 42 -32 45 -35 24 -30 283 -153 309 -147 3 1 21 -2 40 -6 38 -9 85 -14 151
-16 36 0 42 -3 27 -11 -20 -12 -167 -14 -237 -4 -25 4 -56 8 -70 10 -65 10
-94 15 -111 20 -82 26 141 -228 267 -305 119 -72 220 -87 362 -54 92 21 109
33 47 32 -111 -3 -215 34 -323 116 -50 37 -52 40 -32 48 12 4 40 10 63 12 105
12 241 73 315 143 7 7 21 17 30 22 9 5 15 12 12 14 -3 3 -70 7 -150 10 -151 6
-158 6 -249 32 -60 17 -241 102 -241 113 0 4 71 8 158 8 92 1 182 6 217 14 33
8 62 14 65 15 32 6 61 17 58 21 -3 2 -57 6 -119 8 -122 4 -142 7 -261 37 -143
36 -278 95 -428 187 -140 86 -234 167 -363 315 -28 31 -54 57 -58 57 -4 0 -1
-17 8 -37z"/>
<path d="M4290 3336 c88 -192 153 -435 177 -656 13 -124 6 -394 -13 -493 -2
-12 -6 -39 -10 -61 -8 -53 -50 -218 -74 -286 -169 -491 -525 -899 -992 -1137
-125 -64 -165 -81 -250 -109 -32 -11 -58 -22 -58 -26 0 -11 -3 -11 113 16 316
75 605 237 842 473 105 104 125 128 217 256 89 124 192 327 242 475 19 56 33
102 30 102 -3 0 0 8 5 18 5 9 11 31 14 47 3 17 8 41 12 55 8 37 13 70 20 120
3 25 8 63 10 85 7 51 7 289 1 335 -3 19 -8 55 -11 80 -7 61 -32 186 -49 250
-39 141 -132 350 -210 468 -26 40 -49 72 -51 72 -2 0 13 -38 35 -84z"/>
<path d="M689 2628 c-1 -13 -3 -34 -5 -48 -16 -127 -20 -180 -18 -275 1 -105
8 -196 19 -260 55 -315 162 -567 342 -810 168 -227 429 -442 673 -557 133 -62
144 -67 237 -97 81 -26 117 -35 223 -56 26 -5 145 -21 190 -25 72 -7 301 0
317 9 17 9 17 10 -2 9 -124 -6 -423 53 -613 121 -237 85 -496 236 -656 384
-13 12 -39 36 -57 53 -272 251 -497 641 -575 997 -3 12 -7 31 -9 42 -3 11 -7
31 -10 45 -5 23 -7 37 -20 115 -10 61 -19 183 -19 277 -1 54 -4 98 -8 98 -5 0
-9 -10 -9 -22z"/>
</g>
</svg>
