<svg id="Layer_1" data-name="Layer 1" xmlns="http://www.w3.org/2000/svg" xmlns:xlink="http://www.w3.org/1999/xlink" viewBox="0 0 1000 700"><defs><linearGradient id="linear-gradient" x1="304.55" y1="-17.14" x2="304.55" y2="706.12" gradientUnits="userSpaceOnUse"><stop offset="0" stop-color="#e85d04"/><stop offset="1" stop-color="#dc2f02"/></linearGradient><linearGradient id="linear-gradient-2" x1="307.41" y1="-17.13" x2="307.41" y2="706.12" xlink:href="#linear-gradient"/><linearGradient id="linear-gradient-3" x1="302.5" y1="-17.14" x2="302.5" y2="706.12" xlink:href="#linear-gradient"/><linearGradient id="linear-gradient-4" x1="626.1" y1="-17.14" x2="626.1" y2="706.12" xlink:href="#linear-gradient"/><linearGradient id="linear-gradient-5" x1="593.11" y1="-17.14" x2="593.11" y2="706.12" xlink:href="#linear-gradient"/><linearGradient id="linear-gradient-6" x1="667.84" y1="-17.14" x2="667.84" y2="706.12" xlink:href="#linear-gradient"/><linearGradient id="linear-gradient-7" x1="484.51" y1="-17.14" x2="484.51" y2="706.12" xlink:href="#linear-gradient"/><linearGradient id="linear-gradient-8" x1="563.99" y1="-17.13" x2="563.99" y2="706.12" xlink:href="#linear-gradient"/><linearGradient id="linear-gradient-9" x1="484.47" y1="-17.14" x2="484.47" y2="706.12" xlink:href="#linear-gradient"/><linearGradient id="linear-gradient-10" x1="490.01" y1="-17.14" x2="490.01" y2="706.12" xlink:href="#linear-gradient"/><linearGradient id="linear-gradient-11" x1="538.12" y1="-17.13" x2="538.12" y2="706.12" xlink:href="#linear-gradient"/><linearGradient id="linear-gradient-12" x1="570.44" y1="-17.14" x2="570.44" y2="706.12" xlink:href="#linear-gradient"/><linearGradient id="linear-gradient-13" x1="384.53" y1="-17.13" x2="384.53" y2="706.12" xlink:href="#linear-gradient"/><linearGradient id="linear-gradient-14" x1="681.75" y1="-17.14" x2="681.75" y2="706.12" xlink:href="#linear-gradient"/><linearGradient id="linear-gradient-15" x1="508.29" y1="-17.14" x2="508.29" y2="706.12" xlink:href="#linear-gradient"/><linearGradient id="linear-gradient-16" x1="559.26" y1="-17.14" x2="559.26" y2="706.12" xlink:href="#linear-gradient"/></defs><path d="M208.85,140.57c9.18,11.84,16.91,24.9,29.82,33.33,12.52,8.17,26,14.37,39.77,21.1.22-2.37-1.12-3.38-2-4.5-8.05-10.1-15.92-20.32-21.4-32.14-10.2-22-13.33-44.85-8.85-68.78a107.81,107.81,0,0,1,16.55-40.3,83.07,83.07,0,0,1,26.12-24.5,88,88,0,0,1,15.6-8.07c-.75,3.24-2.64,5.16-4.36,7.08-8.25,9.24-15.61,19.06-20.4,30.6C268,82.53,271,109.49,286,135.62c12.21,21.26,30.46,36.2,50.56,49.37,13.19,8.64,26.39,17.32,37,29.28a75.53,75.53,0,0,1,15,27.31,6.46,6.46,0,0,1,.4,1.67c.11,2.05,1.61,4.89-.57,5.92s-3.18-2-4.22-3.44c-9.32-13.13-22.08-22-36.16-29.13-11.76-6-23.6-11.79-35.43-17.64a6.65,6.65,0,0,0-5.63-.77c21,19.11,43.49,36.16,51.76,66-13.89-12.65-27.9-23.31-44.4-30.05a288.2,288.2,0,0,0-50.5-15.75c18.59,20,39.06,37.49,62.57,51.29s49.23,21.3,74.77,29.93c-6.36.44-12.73,1.24-19.09,1.26-14.91.06-29.76-.37-44.4-4.09-20.25-5.16-38.1-14.92-54.66-27.28-15.12-11.28-28.72-24.13-40-39.38A179.4,179.4,0,0,1,216,178.5c-3.66-11.22-5.82-22.76-7.78-34.35C208.08,143.08,207.48,141.93,208.85,140.57Z" style="fill-rule:evenodd;fill:url(#linear-gradient)"/><path d="M385.3,306.15c-23.91,8.71-47.94,7.12-72.31,6.48a7.2,7.2,0,0,0,3.56,3.48c21,12.53,43.6,19.55,68.28,19,5.44-.12,10.88-.16,16.32-.21,1,0,2.22-.44,2.74.66s-.7,1.76-1.39,2.33c-13.37,11.21-27.81,20.27-45.54,22.79-4.93.7-9.83,1.56-15.38,2.44,17.7,16.27,37.17,25.82,61.54,22.77-6.37,2.76-12.85,4.23-19.33,5.68-25.48,5.71-45.3-5.19-63-21.71-8.83-8.23-16.11-17.89-23.53-27.39a2.28,2.28,0,0,1-.62-2.48c22.09,2.54,44.17,9.23,66.7,2.77-7.51-.56-15-1.06-22.5-1.88-25.19-2.79-46.26-14.46-65.49-30.14A222.45,222.45,0,0,1,240,275c-12.52-16.1-21.63-34.09-29.13-53a5.12,5.12,0,0,1-.12-1.43c2,.12,2.61,1.78,3.55,2.85,13.55,15.22,27,30.6,44,42.19,31.24,21.34,64.93,36.49,103.17,39.61a109.44,109.44,0,0,0,18.9,0A6.54,6.54,0,0,1,385.3,306.15Z" style="fill-rule:evenodd;fill:url(#linear-gradient-2)"/><path d="M308.85,37.52c-18.49,40.3-14.24,78.12,11.7,113.84-21.87-12.57-34-31.67-35.89-56.44C283,72.11,291.83,52.94,308.85,37.52Z" style="fill-rule:evenodd;fill:url(#linear-gradient-3)"/><path d="M744.81,255.64c-12.94,7.55-25,16.79-40.1,19.8-14.66,2.91-29.49,3.63-44.77,4.75.68-2.28,2.3-2.72,3.55-3.43,11.24-6.37,22.36-12.91,31.85-21.83,17.66-16.6,29.09-36.65,33.85-60.52a107.62,107.62,0,0,0-.32-43.57,83.17,83.17,0,0,0-15.1-32.47,89.78,89.78,0,0,0-11.46-13.31c-.53,3.29.52,5.77,1.4,8.2,4.21,11.65,7.38,23.5,7.51,36,.35,30.46-12.44,54.37-36.1,73-19.26,15.19-41.77,22.24-65.32,27-15.47,3.1-31,6.23-45.22,13.38a75.29,75.29,0,0,0-24.15,19.72,6.76,6.76,0,0,0-1,1.4c-.87,1.87-3.32,3.94-1.68,5.71s3.68-.64,5.2-1.62c13.55-8.71,28.67-12.15,44.41-13.54,13.14-1.16,26.3-2.14,39.45-3.16a6.63,6.63,0,0,1,5.52,1.39c-26.61,9.89-53.84,17.34-72.64,41.92,17.61-6.55,34.59-11.21,52.41-11.33a288.11,288.11,0,0,1,52.72,4.23c-24.72,11.66-50.21,20.21-77.18,24.26s-53.62,1.4-80.53-.12c5.74,2.79,11.34,5.9,17.24,8.29,13.81,5.62,27.75,10.76,42.72,12.76,20.71,2.76,40.91.37,60.89-4.92,18.24-4.83,35.65-11.69,51.81-21.62A179.61,179.61,0,0,0,724,288.15c7.57-9,13.89-18.95,20-29C744.58,258.24,745.58,257.4,744.81,255.64Z" style="fill-rule:evenodd;fill:url(#linear-gradient-4)"/><path d="M519.35,343.48c18.93,17,41.82,24.48,64.67,33a7.24,7.24,0,0,1-4.61,1.9c-24.18,3.78-47.73,1.89-70.43-7.82-5-2.14-10-4.21-15.07-6.28-.89-.37-1.89-1.23-2.79-.42s0,1.9.42,2.69c8.23,15.38,18.25,29.18,33.76,38.13,4.31,2.49,8.54,5.11,13.36,8-22.48,8.49-44.12,10.1-65.59-1.82,4.88,4.93,10.34,8.71,15.82,12.48,21.51,14.8,44,12.07,66.57,3.35,11.26-4.35,21.62-10.6,32-16.64A2.28,2.28,0,0,0,589,408c-21.44-5.88-44.42-7.91-62.91-22.3,7.18,2.27,14.32,4.61,21.57,6.64,24.41,6.81,48.32,3.84,72-3.54a222.56,222.56,0,0,0,46.07-20c17.62-10.26,32.79-23.56,46.78-38.27a5.11,5.11,0,0,0,.64-1.29c-1.91-.63-3.08.69-4.35,1.32-18.25,9.08-36.45,18.33-56.53,22.76-36.93,8.15-73.85,9.64-110.5-1.72a110,110,0,0,1-17.54-7A6.55,6.55,0,0,0,519.35,343.48Z" style="fill-rule:evenodd;fill:url(#linear-gradient-5)"/><path d="M690.45,122.73C692.58,167,674.52,200.52,637.14,224c25-3.5,43.39-16.69,54.35-39C701.59,164.49,700.49,143.38,690.45,122.73Z" style="fill-rule:evenodd;fill:url(#linear-gradient-6)"/><path d="M477.51,440l-11.9-34.13L473.7,400h0C457.23,370,493.79,357,497.24,337s27.11,2.78,35.69-16.28,27.78-41.27,27.78-41.27L549.44,273c-21.83,11.72-15.25,42.4-38.43,47.1-22.86.31-16-39.45-15.34-45.4,7.83,7.2,17.54,1.56,17.54,1.56-27.56-7.2-9.71-23.17-34.76-46.87,13.46,5.1,30.69,1.47,30.69,1.47-22.24-1.88-49.17-36-60-21-28.81-12.11-40.81,3.13-40.81,3.13,9.71.63,45.4,7.1,46,31.73s-10.65,33.82-17.12,40.09c0,0,12.11-5.22,16.29-10.24-1.05,43-78.79,93.52-22.17,162.41l4-10c7.93,9.61,50.1,69.31,27.14,106.88C462.48,533.85,499.64,487.53,477.51,440Z" style="fill-rule:evenodd;fill:url(#linear-gradient-7)"/><path d="M465.45,359.05c-26,146.71,125.78,165.08,63.83,336.48,0,0,76.25-89.82,15.05-166.41,0,0,34.51,47.11,121.24,44.18C629.5,558.29,513.57,513.59,465.45,359.05Z" style="fill:url(#linear-gradient-8)"/><path d="M457.41,414.66c-14.14,94.46,74.45,118.73,33.09,213.42C556.52,547.78,456.6,487.2,457.41,414.66Z" style="fill:url(#linear-gradient-9)"/><path d="M470.23,379.18s11-19,26.38-22.77,33.89-6.07,43.87-49.54l-7.24,2.57s-16.59,17.23-36.32,13.78-31.62,9.4-39.14,14.09-16.28,5.22-18.16,16.39S470.23,379.18,470.23,379.18Z" style="fill-rule:evenodd;fill:url(#linear-gradient-10)"/><path d="M531.31,480.65c32.68,6.63,71.87-14.44,71.87-14.44-63,1.26-102.5-30.49-102.5-30.49,23.38,8.51,56-9.56,56-9.56l-24.1-1.5a91.09,91.09,0,0,1-25.51-.94,38.84,38.84,0,0,0-24.59,3.57h-9.45l6.94,12.4,27.1,32.56Z" style="fill-rule:evenodd;fill:url(#linear-gradient-11)"/><path d="M513.07,469.33s63.8,46.76,114.74,41.33c0,0-27.17,25.94-81.83.7Z" style="fill-rule:evenodd;fill:url(#linear-gradient-12)"/><path d="M528.82,637.52l-5.31.66c-3.48.38-8.53,1.15-15.11,1.36-3.28.16-6.94.43-10.89.37h-6.19c-2.14,0-4.36-.07-6.64-.23-4.57-.31-9.48-.42-14.6-1.08l-7.9-.92c-2.68-.39-5.41-.9-8.21-1.37-5.64-.83-11.38-2.26-17.39-3.56-3-.68-6-1.63-9-2.48l-4.61-1.32q-2.29-.78-4.62-1.55a244.6,244.6,0,0,1-38-16c-6.42-3.19-12.65-7-18.94-10.84l-9.32-6.1L343,587.83a271.31,271.31,0,0,1-33.85-30.67,254.6,254.6,0,0,1-28-36.07,266.41,266.41,0,0,1-20.73-39A258.45,258.45,0,0,1,247.46,443a246.23,246.23,0,0,1-6.13-36.22c-.39-2.82-.41-5.61-.63-8.31s-.36-5.24-.46-8c0-5.08,0-9.91,0-14.44.25-4.62.46-8.93.75-12.9s.87-7.56,1.22-10.82c.64-6.52,1.88-11.55,2.48-15s1.05-5.25,1.05-5.25,0,1.86-.05,5.36-.25,8.59,0,15.07c.13,3.23.05,6.82.38,10.68s.55,8,.87,12.46c.54,4.5,1.12,9.29,1.72,14.34.86,4.72,1.53,10.09,2.59,15.41s2.18,10.95,3.81,16.61c.81,2.83,1.38,5.76,2.28,8.66s1.77,5.85,2.67,8.83a285.21,285.21,0,0,0,35.28,72.3A268.13,268.13,0,0,0,322,545.24a288,288,0,0,0,31.42,29.17,278.87,278.87,0,0,0,34.38,23.42,275,275,0,0,0,35,17.32,291.73,291.73,0,0,0,33.31,11.37c2.64.7,5.22,1.45,7.77,2.07l7.5,1.68c4.86,1.24,9.57,1.92,14,2.76s8.58,1.2,12.42,1.84,7.4.89,10.62,1.2c6.42.68,11.57.93,15.05,1.11Z" style="fill:url(#linear-gradient-13)"/><path d="M744.08,225l3.35,4.76c2.11,3.16,5.5,7.57,9,13.81l2.89,4.86c1,1.69,2.06,3.5,3,5.42,2,3.82,4.12,8,6.26,12.48,1.95,4.59,4.13,9.45,6.25,14.65.93,2.65,1.9,5.36,2.88,8.14s2.08,5.61,2.85,8.61,1.71,6,2.58,9.09c.43,1.55.92,3.11,1.31,4.7s.71,3.22,1.07,4.84q1,4.91,2.12,10c.6,3.4,1,6.87,1.58,10.39.26,1.76.51,3.53.78,5.31l.19,1.34,0,.33,0,.49.06.67.25,2.65c.3,3.57.74,7.07.94,10.83s.32,7.62.48,11.49c0,3.82-.07,7.68-.1,11.58a261.23,261.23,0,0,1-5.81,47.69,262.82,262.82,0,0,1-38.68,91,261.42,261.42,0,0,1-64.15,66.57,237.79,237.79,0,0,1-34.12,20.79c-5.47,2.87-10.88,5.27-16,7.5-2.57,1.14-5.16,2-7.63,3s-4.85,1.94-7.25,2.67a239.93,239.93,0,0,1-24.77,7.12c-3.49.77-6.59,1.44-9.3,2l-6.93,1.11-5.77.87,5.53-1.85,6.62-2.18,8.83-3.27c6.58-2.49,14.43-5.86,23.24-10a302.58,302.58,0,0,0,28.51-15.73,280.92,280.92,0,0,0,61.61-51.9,285,285,0,0,0,27.38-36,278.66,278.66,0,0,0,36.34-85.47,282.85,282.85,0,0,0,6.89-44.71c.2-3.67.4-7.32.59-10.93s.1-7.1.15-10.61-.18-7.21-.25-10.74l-.08-2.67,0-.66v-.17c0-.19,0,.08,0,0l0-.33-.1-1.28c-.14-1.71-.29-3.41-.43-5.1-.3-3.37-.5-6.72-.87-10s-.9-6.49-1.34-9.65c-.21-1.59-.41-3.17-.61-4.73s-.58-3.07-.86-4.59q-.87-4.56-1.72-8.94c-1.16-5.84-2.82-11.3-4-16.62-1.48-5.24-3.07-10.16-4.46-14.83-1.56-4.61-3.27-8.84-4.64-12.85-.67-2-1.44-3.89-2.21-5.65l-2.16-5.1c-2.63-6.51-5.18-11.51-6.8-14.94Z" style="fill:url(#linear-gradient-14)"/><path d="M348.89,153.12l2.82-2.65c1.86-1.68,4.54-4.23,8.07-7.31,3.38-3.24,8.11-6.53,13.4-10.54,5.24-4.16,11.69-7.82,18.63-12.16,3.42-2.26,7.32-4,11.22-6l6-3,3.09-1.54,3.22-1.35,13.42-5.41a74.73,74.73,0,0,1,7.09-2.4l7.3-2.26c2.47-.73,4.92-1.59,7.45-2.23l7.7-1.71,7.81-1.73c1.31-.29,2.63-.58,3.95-.82l4-.56,8.07-1.1,4.05-.55,4.26-.53,8-.54,4-.27,4.18-.11,8.38-.13,8.23.23c5.48,0,10.9.75,16.3,1.13,5.36.71,10.71,1.23,15.91,2.26l7.77,1.43c2.56.51,5.08,1.17,7.58,1.75,5,1.11,9.86,2.58,14.6,4s9.28,3.07,13.69,4.68a240.55,240.55,0,0,1,24.12,10.75,221.93,221.93,0,0,1,19.23,11.11c2.74,1.85,5.33,3.51,7.65,5.17l6.26,4.7,2.67,2,2.26,1.91,3.54,3,2.92,2.53-3.48-1.69c-2.27-1.09-5.49-2.84-9.73-4.78l-7-3.27-8.3-3.58c-2.91-1.34-6.15-2.5-9.48-3.85s-6.89-2.6-10.59-3.93c-7.4-2.66-15.53-5.12-24.15-7.51-4.34-1.07-8.77-2.25-13.35-3.25s-9.23-2-14-2.73c-9.54-1.81-19.52-2.78-29.63-3.73-5.07-.22-10.18-.68-15.32-.69l-7.71-.15-7.6.18-3.81,0-4,.24-8,.46-3.63.43-3.82.42-7.61.81-3.78.4c-1.25.18-2.49.45-3.73.65l-7.41,1.27-7.34,1.25c-2.41.5-4.77,1.11-7.14,1.66-4.7,1.17-9.41,2.1-13.9,3.39l-13.16,4-3.2,1-3.08,1.15-6,2.23c-3.94,1.49-7.88,2.69-11.42,4.38-7.15,3.21-14,5.78-19.58,8.83l-8.09,4c-1.25.62-2.48,1.16-3.61,1.79s-2.2,1.25-3.21,1.84c-4.05,2.36-7.33,4.08-9.52,5.31Z" style="fill:url(#linear-gradient-15)"/><path d="M512.62,319.7c21.58-8.91,11.31-51.7,72.35-64.79l46.21,9.16,1.15,8.46c-32,.67-79.81.14-95.41,47.17,0,0-13.37,22.12-38,23.33s-5.79-11-5.79-11Z" style="fill:url(#linear-gradient-16)"/></svg>